PathFileType	4	(X/Y/Z)	/Users/itak/Documents/Research/Walk-IL/dataset/trc/00235_00009.trc
DataRate	CameraRate	NumFrames	NumMarkers	Units	OrigDataRate	OrigDataStartFrame	OrigNumFrames
100.000000	100.000000	4	53	mm	100.000000	0	841
Frame#	Time	RPSI			LPSI			L3			STRN			T10			C7			CLAV			RBAK			LBAK			LSHO			LUPA			LAEL			LAOL			LWTS			LWPS			LFRA			LIFD			LHPS			LHTS			RSHO			RUPA			RAEL			RAOL			RWTS			RWPS			RFRA			RIFD			RHTS			RHPS			RBHD			LFHD			RFHD			LBHD			LHIP			RHIP			RASI			LASI			LKNE			LTHI			LANK			LTIP			LTOE			LMT1			LMT5			LHEE			RKNE			RTHI			RANK			RTIP			RTOE			RMT1			RMT5			RHEE			
		X1	Y1	Z1	X2	Y2	Z2	X3	Y3	Z3	X4	Y4	Z4	X5	Y5	Z5	X6	Y6	Z6	X7	Y7	Z7	X8	Y8	Z8	X9	Y9	Z9	X10	Y10	Z10	X11	Y11	Z11	X12	Y12	Z12	X13	Y13	Z13	X14	Y14	Z14	X15	Y15	Z15	X16	Y16	Z16	X17	Y17	Z17	X18	Y18	Z18	X19	Y19	Z19	X20	Y20	Z20	X21	Y21	Z21	X22	Y22	Z22	X23	Y23	Z23	X24	Y24	Z24	X25	Y25	Z25	X26	Y26	Z26	X27	Y27	Z27	X28	Y28	Z28	X29	Y29	Z29	X30	Y30	Z30	X31	Y31	Z31	X32	Y32	Z32	X33	Y33	Z33	X34	Y34	Z34	X35	Y35	Z35	X36	Y36	Z36	X37	Y37	Z37	X38	Y38	Z38	X39	Y39	Z39	X40	Y40	Z40	X41	Y41	Z41	X42	Y42	Z42	X43	Y43	Z43	X44	Y44	Z44	X45	Y45	Z45	X46	Y46	Z46	X47	Y47	Z47	X48	Y48	Z48	X49	Y49	Z49	X50	Y50	Z50	X51	Y51	Z51	X52	Y52	Z52	X53	Y53	Z53	

1	0	-32.05110549926758	1049.030029296875	791.6478271484375	-26.92601013183594	1054.029907226562	671.5557250976562	-36.07165908813477	1129.99169921875	715.1305541992188	201.4606628417969	1314.929931640625	717.4228515625	-49.2009162902832	1257.390502929688	720.1028442382812	12.65438842773438	1518.951782226562	714.7482299804688	176.5209197998047	1433.054321289062	718.720703125	-64.7623291015625	1381.401611328125	789.38720703125	-6.988887310028076	1480.972778320312	604.6122436523438	82.26235961914062	1479.59521484375	549.266357421875	50.55245971679688	1361.0654296875	471.6883544921875	65.40216064453125	1150.765747070312	445.2911376953125	-2.558072090148926	1133.35888671875	497.7889709472656	165.5403289794922	919.2208862304688	494.8148193359375	133.4104766845703	901.6870727539062	418.5709228515625	88.215576171875	1044.4248046875	430.2685852050781	175.3099212646484	724.8837890625	487.5093383789062	152.3774871826172	813.6549682617188	422.1902770996094	199.6674346923828	819.1304321289062	471.15966796875	69.87476348876953	1479.456176757812	885.1198120117188	51.65782928466797	1416.370971679688	954.1776733398438	28.6578369140625	1136.071655273438	998.533203125	-8.754467964172363	1128.06005859375	910.82470703125	160.8548736572266	919.2430419921875	956.846923828125	110.4441070556641	906.6651611328125	1022.775817871094	54.53367614746094	1067.633911132812	1011.793884277344	173.4960021972656	725.6815795898438	953.78466796875	199.2552032470703	798.3115844726562	973.4143676757812	148.7255249023438	799.5305786132812	1024.521728515625	35.39536666870117	1663.450561523438	732.5968627929688	251.5003204345703	1726.922973632812	700.8015747070312	220.0729217529297	1729.66748046875	795.687255859375	118.9766387939453	1671.405029296875	619.7862548828125	77.37208557128906	989.0973510742188	534.7506713867188	61.89126968383789	1008.273193359375	901.2827758789062	160.8582458496094	1049.979248046875	867.2738647460938	176.4019775390625	1030.711303710938	584.8917846679688	94.54141235351562	504.4912109375	583.3072509765625	96.22876739501953	647.6761474609375	549.8223266601562	12.29237079620361	35.39459228515625	604.5660400390625	42.82904815673828	282.9698791503906	582.9300537109375	230.3895568847656	40.83576583862305	643.69384765625	165.0915679931641	34.38290023803711	691.177490234375	139.5103912353516	37.62336349487305	578.8471069335938	-46.4905891418457	40.25666809082031	660.3543090820312	79.77510070800781	515.1929931640625	860.4229125976562	116.0707321166992	781.623291015625	906.6796264648438	2.836378574371338	34.39335250854492	829.0104370117188	80.06633758544922	400.3584899902344	842.2039184570312	215.9887084960938	42.73695755004883	793.6729125976562	162.08837890625	42.02058792114258	748.964599609375	111.3440017700195	35.36764144897461	859.689208984375	-57.78143692016602	33.56745529174805	766.7388305664062	
2	0.01	-32.08475494384766	1049.047241210938	791.6267700195312	-26.98902702331543	1054.02734375	671.5285034179688	-36.09045028686523	1130.018432617188	715.1006469726562	201.4592895507812	1314.91845703125	717.3141479492188	-49.21100234985352	1257.412231445312	720.0462036132812	12.69382476806641	1518.970092773438	714.6989135742188	176.5370635986328	1433.046508789062	718.6423950195312	-64.74656677246094	1381.431884765625	789.3611450195312	-6.981903076171875	1481.008056640625	604.5692749023438	82.2789306640625	1479.630249023438	549.1984252929688	50.54567337036133	1361.1103515625	471.6036987304688	65.39231872558594	1150.805541992188	445.2048645019531	-2.611643552780151	1133.393310546875	497.6734008789062	165.6506195068359	919.3200073242188	494.7493591308594	133.4968414306641	901.7557373046875	418.5075988769531	88.25758361816406	1044.47607421875	430.1929931640625	175.4710083007812	724.9706420898438	487.4682312011719	152.4624481201172	813.7345581054688	422.1234741210938	199.8169708251953	819.2525634765625	471.1007385253906	70.05484771728516	1479.44677734375	885.0547485351562	51.71635055541992	1416.370239257812	954.1295776367188	28.82137298583984	1136.053833007812	998.4473876953125	-8.653658866882324	1128.057861328125	910.7471923828125	161.0512237548828	919.2852172851562	956.6387329101562	110.5802307128906	906.6524658203125	1022.574401855469	54.67322540283203	1067.607666015625	1011.664733886719	173.8252258300781	725.743408203125	953.4981689453125	199.5740203857422	798.3745727539062	973.1216430664062	148.9603729248047	799.518310546875	1024.283935546875	35.46470642089844	1663.486450195312	732.6220703125	251.5776519775391	1726.884155273438	700.7235107421875	220.1822204589844	1729.631713867188	795.636962890625	119.0024261474609	1671.44580078125	619.7601318359375	77.27257537841797	989.08984375	534.6973266601562	61.900390625	1008.289306640625	901.2410888671875	160.8271942138672	1049.985595703125	867.1775512695312	176.3511962890625	1030.7158203125	584.8171997070312	94.50531768798828	504.4927673339844	583.2767944335938	96.18125915527344	647.66796875	549.787353515625	12.2906379699707	35.39677429199219	604.5691528320312	42.80094909667969	282.9610900878906	582.9150390625	230.3912048339844	40.83647918701172	643.6962280273438	165.0797119140625	34.36955642700195	691.1744995117188	139.5142822265625	37.62228775024414	578.8469848632812	-46.48981094360352	40.25294494628906	660.3558959960938	79.79377746582031	515.2081909179688	860.3819580078125	116.0637817382812	781.6213989257812	906.6185302734375	2.848756551742554	34.39677429199219	829.0086059570312	80.0673828125	400.36376953125	842.1735229492188	215.9904022216797	42.74079895019531	793.6710815429688	162.0861968994141	42.01271820068359	748.9544067382812	111.3446502685547	35.3824577331543	859.677001953125	-57.78457260131836	33.56624221801758	766.7418823242188	
3	0.02	-32.12012100219727	1049.069091796875	791.6033935546875	-27.0690860748291	1054.025634765625	671.4915161132812	-36.11215591430664	1130.052490234375	715.0634765625	201.4612426757812	1314.90625	717.1757202148438	-49.22380447387695	1257.44140625	719.9760131835938	12.74544334411621	1518.990844726562	714.6357421875	176.561279296875	1433.03955078125	718.54150390625	-64.7247314453125	1381.470458984375	789.3271484375	-6.972050666809082	1481.051635742188	604.5128173828125	82.30233764648438	1479.6708984375	549.1126098632812	50.53433609008789	1361.1650390625	471.4957885742188	65.38677978515625	1150.855224609375	445.0931091308594	-2.673430681228638	1133.432495117188	497.527099609375	165.7901611328125	919.4406127929688	494.6603088378906	133.6106872558594	901.8408203125	418.4266357421875	88.31043243408203	1044.537719726562	430.09228515625	175.6602630615234	725.0728149414062	487.4118041992188	152.5699920654297	813.83447265625	422.0304565429688	200.0103912353516	819.3980712890625	471.0254211425781	70.27658081054688	1479.436767578125	884.968994140625	51.79409408569336	1416.366821289062	954.0665893554688	29.02230453491211	1136.03076171875	998.3370971679688	-8.537402153015137	1128.0625	910.6558837890625	161.2919464111328	919.3333740234375	956.3692626953125	110.774658203125	906.6363525390625	1022.3173828125	54.85499572753906	1067.576049804688	1011.499145507812	174.2071075439453	725.8139038085938	953.1337890625	199.9431457519531	798.4396362304688	972.7536010742188	149.2545013427734	799.5073852539062	1023.972961425781	35.5510368347168	1663.53515625	732.649658203125	251.6810760498047	1726.834716796875	700.62158203125	220.3343200683594	1729.5791015625	795.5679931640625	119.0392227172852	1671.494506835938	619.7236938476562	77.14214324951172	989.082763671875	534.628173828125	61.90810012817383	1008.307067871094	901.1915893554688	160.7886810302734	1049.993286132812	867.0558471679688	176.2874908447266	1030.721435546875	584.7235717773438	94.46329498291016	504.4939270019531	583.236572265625	96.12342834472656	647.658935546875	549.7435302734375	12.28869533538818	35.39823532104492	604.5723266601562	42.76758575439453	282.9503479003906	582.8946533203125	230.3922271728516	40.83741760253906	643.6986083984375	165.0675964355469	34.35601806640625	691.171142578125	139.5183258056641	37.6211051940918	578.84619140625	-46.48733520507812	40.24817657470703	660.3587036132812	79.82442474365234	515.2260131835938	860.3331909179688	116.0574798583984	781.6201782226562	906.5419311523438	2.860987424850464	34.39963912963867	829.0076904296875	80.07128143310547	400.3698120117188	842.140625	215.9914855957031	42.7442512512207	793.6687622070312	162.0834503173828	42.00466156005859	748.9428100585938	111.3467178344727	35.39725112915039	859.6629028320312	-57.78720855712891	33.5650520324707	766.7448120117188	
4	0.03	-32.15292358398438	1049.095092773438	791.5791015625	-27.16314888000488	1054.026000976562	671.4447021484375	-36.13520050048828	1130.092651367188	715.02001953125	201.4697723388672	1314.894775390625	717.0119018554688	-49.23976135253906	1257.477905273438	719.89501953125	12.80844306945801	1519.011962890625	714.5606079101562	176.5954284667969	1433.034545898438	718.4204711914062	-64.69649505615234	1381.515747070312	789.2862548828125	-6.958220481872559	1481.1015625	604.4434204101562	82.3326416015625	1479.714111328125	549.0120239257812	50.51775741577148	1361.2265625	471.3684997558594	65.38864898681641	1150.912963867188	444.9587097167969	-2.737616300582886	1133.472900390625	497.355224609375	165.9528961181641	919.5753784179688	494.5489501953125	133.7490692138672	901.9376831054688	418.3297119140625	88.37178039550781	1044.605712890625	429.9678649902344	175.8670043945312	725.1830444335938	487.3393859863281	152.6963348388672	813.9498901367188	421.911376953125	200.2372741699219	819.556396484375	470.9353332519531	70.52584838867188	1479.427978515625	884.86474609375	51.89179992675781	1416.359985351562	953.9895629882812	29.2488842010498	1136.003662109375	998.2055053710938	-8.414077758789062	1128.076782226562	910.5565185546875	161.5670776367188	919.384033203125	956.0457763671875	111.0286483764648	906.6177368164062	1022.013122558594	55.07504272460938	1067.541137695312	1011.302429199219	174.6198272705078	725.8890991210938	952.7023315429688	200.3363494873047	798.5013427734375	972.3248901367188	149.5967102050781	799.5	1023.597778320312	35.6511116027832	1663.595703125	732.67578125	251.8091735839844	1726.776000976562	700.4977416992188	220.5297698974609	1729.507568359375	795.4803466796875	119.0875473022461	1671.548095703125	619.6764526367188	76.98403930664062	989.0777587890625	534.544921875	61.91283416748047	1008.325500488281	901.1367797851562	160.7461242675781	1050.002197265625	866.91357421875	176.2138214111328	1030.727661132812	584.614990234375	94.41895294189453	504.4944152832031	583.1875	96.05943298339844	647.6499633789062	549.6921997070312	12.28707981109619	35.39878845214844	604.5746459960938	42.73224258422852	282.9383239746094	582.869384765625	230.3921813964844	40.83833312988281	643.7005004882812	165.0568542480469	34.34416580200195	691.1680297851562	139.5218353271484	37.61974716186523	578.8447265625	-46.48289108276367	40.24298477172852	660.3624267578125	79.86804962158203	515.2448120117188	860.2798461914062	116.0534133911133	781.620361328125	906.4536743164062	2.871704578399658	34.40134811401367	829.0089721679688	80.07937622070312	400.3762817382812	842.1082763671875	215.9917297363281	42.74704360961914	793.666015625	162.0803070068359	41.99783706665039	748.9312744140625	111.3508682250977	35.4107666015625	859.6484985351562	-57.78871917724609	33.56396484375	766.7472534179688	
